# xmcd
#
# Track frame offsets: 
#        150
#        23780
#        44300
#        76116
#        97991
#        121394
#        147999
#        172283
#        192603
#        223093
#
# Disc length: 3259 seconds
#
# Revision: 0
# Processed by: cddbd v1.5.2PL0 Copyright (c) Steve Scherf et al.
# Submitted via: ExactAudioCopy v1.0b3
#
DISCID=8e0cb90a
DTITLE=Phuong Hong Que - Em Van Cho Anh
DYEAR=1900
DGENRE=
TTITLE0=Thuyen giay chieu mua
TTITLE1=Nho nguoi yeu
TTITLE2=Hoang hon mau tim
TTITLE3=Gian hon
TTITLE4=Yeu nguoi nhu the do
TTITLE5=Em van cho anh
TTITLE6=Tui than
TTITLE7=Chuyen ngay xua
TTITLE8=Chuyen tinh doi thong hai mo
TTITLE9=Em ve keo mua
EXTD=
EXTT0=
EXTT1=
EXTT2=
EXTT3=
EXTT4=
EXTT5=
EXTT6=
EXTT7=
EXTT8=
EXTT9=
PLAYORDER=
